<?xml version="1.0" encoding="UTF-8"?>
<svg width="64px" height="32px" viewBox="0 0 64 32" version="1.1" xmlns="http://www.w3.org/2000/svg" xmlns:xlink="http://www.w3.org/1999/xlink">
    <!-- Generator: Sketch 46.2 (44496) - http://www.bohemiancoding.com/sketch -->
    <title>Arrow</title>
    <desc>Created with Sketch.</desc>
    <defs></defs>
    <g id="Page-2" stroke="none" stroke-width="1" fill="none" fill-rule="evenodd" opacity="0.400000006">
        <g id="Tablet" transform="translate(-240.000000, -2562.000000)">
            <g id="Block-4" transform="translate(28.000000, 2432.000000)">
                <g id="Group-81" transform="translate(58.000000, 88.000000)">
                    <g id="Arrow" transform="translate(154.000000, 42.000000)">
                        <rect id="Rectangle-29" x="0" y="0" width="64" height="32"></rect>
                        <path d="M30.9138122,36.1284954 L30.9138122,-7.28726385 C30.9138122,-7.8395486 31.3615275,-8.28726385 31.9138122,-8.28726385 C32.466097,-8.28726385 32.9138122,-7.8395486 32.9138122,-7.28726385 L32.9138122,36.1284954 L41.5204139,27.5218937 C41.9109382,27.1313694 42.5441032,27.1313694 42.9346275,27.5218937 C43.3251518,27.912418 43.3251518,28.545583 42.9346275,28.9361072 L32.8724504,38.9982843 C32.749568,39.4114395 32.3668759,39.7127361 31.9138122,39.7127361 C31.4607486,39.7127361 31.0780565,39.4114395 30.9551741,38.9982843 L20.892997,28.9361072 L20.892997,28.9361072 C20.5024727,28.545583 20.5024727,27.912418 20.892997,27.5218937 L20.892997,27.5218937 L20.892997,27.5218937 C21.2835212,27.1313694 21.9166862,27.1313694 22.3072105,27.5218937 L30.9138122,36.1284954 Z" id="Combined-Shape" fill="#0069FF" transform="translate(31.913812, 15.712736) rotate(-90.000000) translate(-31.913812, -15.712736) "></path>
                    </g>
                </g>
            </g>
        </g>
    </g>
</svg>