<?xml version="1.0" encoding="UTF-8"?>
<svg width="64px" height="64px" viewBox="0 0 64 64" version="1.1" xmlns="http://www.w3.org/2000/svg" xmlns:xlink="http://www.w3.org/1999/xlink">
    <!-- Generator: Sketch 46.2 (44496) - http://www.bohemiancoding.com/sketch -->
    <title>Icon Functionality 64</title>
    <desc>Created with Sketch.</desc>
    <defs></defs>
    <g id="Page-2" stroke="none" stroke-width="1" fill="none" fill-rule="evenodd">
        <g id="Desktop-Ver4.3" transform="translate(-112.000000, -1570.000000)">
            <g id="Block-3" transform="translate(112.000000, 1482.000000)">
                <g id="Group-64" transform="translate(0.000000, 88.000000)">
                    <g id="Icon-Functionality-64">
                        <rect id="Rectangle-12" x="0" y="0" width="64" height="64"></rect>
                        <g id="Group-71" transform="translate(8.000000, 10.000000)" stroke="#0069FF">
                            <rect id="Rectangle-30" stroke-width="2" x="1" y="7" width="42" height="28" rx="4"></rect>
                            <path d="M16,35 L12,43 L32.763932,43 L28.763932,35 L16,35 Z" id="Rectangle-31" stroke-width="2"></path>
                            <g id="Group-24" transform="translate(9.000000, 0.000000)">
                                <rect id="Rectangle-32" transform="translate(6.578427, 21.578427) rotate(-45.000000) translate(-6.578427, -21.578427) " x="-1.22487373" y="21.0784271" width="15.6066017" height="1"></rect>
                                <rect id="Rectangle-32-Copy-2" transform="translate(28.443368, 12.481123) rotate(-45.000000) translate(-28.443368, -12.481123) " x="13.3603218" y="11.9811226" width="30.1660918" height="1"></rect>
                                <rect id="Rectangle-32-Copy" transform="translate(14.937561, 19.603553) rotate(-135.000000) translate(-14.937561, -19.603553) " x="9.9271534" y="19.1035534" width="10.0208153" height="1"></rect>
                                <rect id="Rectangle-32-Copy-3" transform="translate(39.000000, 5.000000) rotate(-90.000000) translate(-39.000000, -5.000000) " x="35.5" y="4.5" width="7" height="1"></rect>
                                <rect id="Rectangle-32-Copy-4" transform="translate(36.000000, 2.000000) rotate(-360.000000) translate(-36.000000, -2.000000) " x="32.5" y="1.5" width="7" height="1"></rect>
                            </g>
                        </g>
                    </g>
                </g>
            </g>
        </g>
    </g>
</svg>