<?xml version="1.0" encoding="UTF-8"?>
<svg width="64px" height="64px" viewBox="0 0 64 64" version="1.1" xmlns="http://www.w3.org/2000/svg" xmlns:xlink="http://www.w3.org/1999/xlink">
    <!-- Generator: Sketch 46.2 (44496) - http://www.bohemiancoding.com/sketch -->
    <title>Icon Support 64</title>
    <desc>Created with Sketch.</desc>
    <defs></defs>
    <g id="Page-2" stroke="none" stroke-width="1" fill="none" fill-rule="evenodd">
        <g id="Desktop-Ver4.3" transform="translate(-472.000000, -1842.000000)">
            <g id="Block-3" transform="translate(112.000000, 1482.000000)">
                <g id="Group-21-Copy-5" transform="translate(360.000000, 360.000000)">
                    <g id="Icon-Support-64">
                        <rect id="Rectangle-16" x="0" y="0" width="64" height="64"></rect>
                        <g id="Group-76" transform="translate(9.000000, 8.000000)" stroke="#0069FF" stroke-width="2">
                            <path d="M45.5867626,47.3450111 L45.5867626,47.3450111 L45.5867626,47.3450111 C45.855147,44.7586019 44.0714872,42.4073389 41.508428,41.9688528 L30,40" id="Line-4" stroke-linecap="round"></path>
                            <path d="M15.5833121,47.3433852 L15.5833121,47.3433852 L15.5833121,47.3433852 C15.8516371,44.7575485 14.0683722,42.406806 11.5058803,41.9684169 L0,40" id="Line-4-Copy" stroke-linecap="round" transform="translate(7.805000, 43.671693) scale(-1, 1) translate(-7.805000, -43.671693) "></path>
                            <path d="M29.5,34.5 L29.5,40.009399 L29.3415464,40.3125181 L29.3415464,40.3125181 C27.506244,43.8234205 23.1722887,45.1817628 19.6613863,43.3464605 C18.261842,42.6148574 17.1428437,41.4418499 16.4779742,40.009399 L16.4779742,40.009399 L16.4779742,32.6544139 C14.8983132,31.179562 13.8349354,29.5156452 13.2878408,27.6626634 C12.8262441,26.0992584 12.7259906,21.418315 12.8568492,17.4752786 C12.8679474,17.1408671 17.9310917,16.0499789 21.0710803,14.1238632 C23.1644061,12.839786 24.9321552,11.4479609 26.3743278,9.94838791 C30.426181,10.3721709 32.6347384,12.2698389 33,15.6413919 C33.0260418,18.5471129 33.0260418,21.6666489 33,25" id="Line-5" stroke-linecap="round"></path>
                            <path d="M35.3122169,40.6140909 C38.9803928,40.2707925 41.7073804,39.0608999 43.4931797,36.984413 L43.4932085,36.9844377 C43.8448078,36.5756061 43.8089611,35.9616335 43.4121738,35.5964963 C39.791653,32.2647692 37.9813926,29.2504269 37.9813926,26.5534694 C37.9813926,20.606977 38.0682155,18.8035157 37.9813926,13.9293069 C37.7856874,2.9424733 27.6519026,0.366101881 23,0.34394326" id="Line-8" stroke-linecap="square"></path>
                            <path d="M10.675412,40.6140909 C7.00639595,40.2707972 4.27877094,39.0609329 2.49253695,36.9844981 C2.14082678,36.5756569 2.17667569,35.9615712 2.57356482,35.5964268 C6.19491391,32.2647273 8.00558846,29.2504081 8.00558846,26.5534694 C8.00558846,20.606977 7.91874453,18.8035157 8.00558846,13.9293069 C8.20134121,2.9424733 18.3375852,0.366101881 22.9906168,0.34394326" id="Line-8" stroke-linecap="square"></path>
                            <path d="M37.966031,24.0463006 C37.9080906,28.010975 36.7580201,29.994532 34.5158196,29.9969717 C32.9301739,29.998697 30.2536683,29.998697 26.4863029,29.9969717" id="Line-9" stroke-linecap="square"></path>
                            <circle id="Oval-12" cx="23.5" cy="30" r="2.5"></circle>
                            <path d="M8.00118732,15.1237585 C4.61569008,14.5103799 2.94902342,16.1770466 3.00118732,20.1237585 C3.05335123,24.0704704 4.72001789,25.7371371 8.00118732,25.1237585 L8.00118732,15.1237585 Z" id="Line-10" stroke-linecap="square"></path>
                            <path d="M38,15.1237585 C41.8943309,14.5103799 43.8114944,16.1770466 43.7514903,20.1237585 C43.6914863,24.0704704 41.7743228,25.7371371 38,25.1237585 L38,15.1237585 Z" id="Line-10" stroke-linecap="square"></path>
                        </g>
                    </g>
                </g>
            </g>
        </g>
    </g>
</svg>