<?xml version="1.0" encoding="UTF-8"?>
<svg width="64px" height="64px" viewBox="0 0 64 64" version="1.1" xmlns="http://www.w3.org/2000/svg" xmlns:xlink="http://www.w3.org/1999/xlink">
    <!-- Generator: Sketch 46.2 (44496) - http://www.bohemiancoding.com/sketch -->
    <title>Icon Saving 64</title>
    <desc>Created with Sketch.</desc>
    <defs></defs>
    <g id="Page-2" stroke="none" stroke-width="1" fill="none" fill-rule="evenodd">
        <g id="Desktop-Ver4.3" transform="translate(-112.000000, -1842.000000)">
            <g id="Block-3" transform="translate(112.000000, 1482.000000)">
                <g id="Group-58" transform="translate(0.000000, 360.000000)">
                    <g id="Icon-Saving-64">
                        <rect id="Rectangle-16" x="0" y="0" width="64" height="64"></rect>
                        <g id="Group-30" transform="translate(5.000000, 8.000000)">
                            <circle id="Oval-2" stroke="#0069FF" stroke-width="2" cx="24" cy="10" r="9"></circle>
                            <g id="Group-25" transform="translate(0.000000, 27.000000)" stroke="#0069FF" stroke-width="2" stroke-linecap="round">
                                <path d="M52.0069638,23.2713172 C48.3032745,23.2713172 45.639099,23.1273903 44.0144371,22.8395366 C41.5774443,22.4077561 29.9498407,19.9184931 26.8194433,19.1751879 C17.07074,16.8603821 6.97365405,11.5803585 1.79302173,8.99004236 C-0.0588229143,8.06412004 -0.0588229143,5.14639254 2.25598289,4.82339191 C4.29271968,4.53919214 13.3670508,8.06412004 16.1369842,8.55427302 C19.2846463,9.11126693 24.3681137,9.0913036 33.4952408,9.62836647 C33.8879253,9.651473 32.8114195,8.06412004 28.6447691,6.67523655 C26.6268699,6.00260349 23.0892351,4.82339191 23.0892351,2.97154727 C23.0892351,-0.269180862 26.7245521,0.597049283 29.6817461,1.00545539 C29.9664643,1.04477666 38.5638771,2.54314244 43.2810756,5.14639254 C45.8547551,6.56671261 47.7145067,9.00072977 48.8603302,12.448444" id="Line"></path>
                                <path d="M21.6126428,9.09075562 C16.8431424,6.93664763 13.9402913,5.51419306 12.9040896,4.82339191 C11.5152061,3.89746959 8.27447798,0.193780299 6.42263334,1.58266378 C5.19274697,2.50507856 5.06906118,3.68829301 6.05157598,5.13230712 L21.6126428,9.09075562 Z" id="Line-3"></path>
                                <path d="M53.6446718,9.91596468 C52.7187494,10.2246055 51.7928271,10.3789258 50.8669048,10.3789258 C49.9409825,10.3789258 48.9547101,10.0765297 47.9080877,9.47173749" id="Line-2"></path>
                            </g>
                            <path d="M27.6725953,12.0734788 C27.6725953,12.7807154 27.3842539,13.4052786 26.8075625,13.9471871 C26.2308711,14.4890957 25.4417263,14.8013773 24.4401044,14.8840413 L24.4401044,16 L23.2571674,16 L23.2571674,14.8840413 C22.2858977,14.8197471 21.8197157,14.6304014 21.2227895,14.1665644 C20.6258634,13.7027274 20.3274047,13.0149292 20.3274047,12.2525832 L21.7566384,12.2525832 C21.8274602,13.033299 22.397189,13.4833519 23.2571674,13.6027555 L23.2571674,10.5717566 C22.3364846,10.3788739 22.0068854,10.1814017 21.6325419,9.9793341 C21.1772592,9.74052693 20.8636247,9.48335385 20.6916291,9.20780712 C20.4488116,8.8220417 20.3274047,8.38117355 20.3274047,7.88518944 C20.3274047,7.10447371 20.6258634,6.46613336 21.2227895,5.97014925 C21.8197157,5.47416514 22.2858977,5.1894378 23.2571674,5.11595867 L23.2571674,4 L24.4401044,4 L24.4401044,5.11595867 C25.3506698,5.1802529 26.0816404,5.43053743 26.6330383,5.86681975 C27.1844363,6.30310207 27.4955414,6.90699959 27.5663632,7.67853042 L26.2159924,7.67853042 C26.1856402,7.38461392 26.1408601,7.21648668 25.7966799,6.81227791 C25.4524997,6.40806915 24.8350092,6.36462252 24.4401044,6.34074853 L24.4401044,9.41446613 C25.4012567,9.61653373 26.0437015,9.80482117 26.3674581,9.9793341 C26.8429756,10.2456959 27.1414342,10.4799071 27.2628429,10.6819747 C27.5360125,11.1136646 27.6725953,11.5774946 27.6725953,12.0734788 Z M23.2483801,6.39555116 C22.7930974,6.45066051 22.4969363,6.61598627 22.2288254,6.85020099 C21.9607144,7.08441571 21.826661,7.40128969 21.826661,7.80083245 C21.826661,8.20037521 21.9556558,8.50576825 22.2136493,8.71702074 C22.4716429,8.92827323 22.7728627,9.07752526 23.2483801,9.20611374 L23.2483801,6.39555116 Z M24.4401044,13.6027555 C24.9055045,13.5384612 25.2697251,13.3754318 25.5327774,13.1136625 C25.7958296,12.8518931 25.9273537,12.5350191 25.9273537,12.163031 C25.9273537,11.7910429 25.7983589,11.499427 25.5403654,11.2881745 C25.2823718,11.076922 24.9156219,10.9070041 24.4401044,10.7784156 L24.4401044,13.6027555 Z" id="$" fill="#0069FF"></path>
                        </g>
                    </g>
                </g>
            </g>
        </g>
    </g>
</svg>