<?xml version="1.0" encoding="UTF-8"?>
<svg width="64px" height="64px" viewBox="0 0 64 64" version="1.1" xmlns="http://www.w3.org/2000/svg" xmlns:xlink="http://www.w3.org/1999/xlink">
    <!-- Generator: Sketch 46.2 (44496) - http://www.bohemiancoding.com/sketch -->
    <title>Icon Platforms 64</title>
    <desc>Created with Sketch.</desc>
    <defs></defs>
    <g id="Page-2" stroke="none" stroke-width="1" fill="none" fill-rule="evenodd">
        <g id="Desktop-Ver4.3" transform="translate(-472.000000, -1570.000000)">
            <g id="Block-3" transform="translate(112.000000, 1482.000000)">
                <g id="Group-31" transform="translate(360.000000, 88.000000)">
                    <g id="Icon-Platforms-64">
                        <rect id="Rectangle-38" x="0" y="0" width="64" height="64"></rect>
                        <g id="Group-74" transform="translate(8.000000, 8.000000)" stroke="#0069FF">
                            <g id="Group-73" transform="translate(20.000000, 0.000000)" stroke-width="2">
                                <path d="M1.00011568,4.02115984 L3.46247163,45.9521586 C3.63811185,45.9838544 3.81775296,46 4,46 L24,46 C25.6568542,46 27,44.6568542 27,43 L27,4 C27,2.34314575 25.6568542,1 24,1 L4,1 C2.34651312,1 1.01438266,2.33433513 1.00011568,4.02115984 Z" id="Rectangle-37"></path>
                                <rect id="Rectangle-34-Copy-2" x="11" y="43" width="6" height="1" rx="0.5"></rect>
                                <path d="M8,2 L8,3 L20,3 L20,2 L8,2 Z" id="Rectangle-34-Copy"></path>
                            </g>
                            <g id="Group-72" transform="translate(0.000000, 3.000000)">
                                <rect id="Rectangle-33" stroke-width="2" x="1" y="1" width="24" height="42" rx="4"></rect>
                                <rect id="Rectangle-34" x="2.5" y="38.5" width="21" height="1"></rect>
                                <rect id="Rectangle-34-Copy" x="2.5" y="4.5" width="21" height="1"></rect>
                            </g>
                        </g>
                    </g>
                </g>
            </g>
        </g>
    </g>
</svg>