<?xml version="1.0" encoding="UTF-8"?>
<svg width="116px" height="116px" viewBox="0 0 116 116" version="1.1" xmlns="http://www.w3.org/2000/svg" xmlns:xlink="http://www.w3.org/1999/xlink">
    <!-- Generator: Sketch 46.2 (44496) - http://www.bohemiancoding.com/sketch -->
    <title>Icon Three</title>
    <desc>Created with Sketch.</desc>
    <defs></defs>
    <g id="Page-2" stroke="none" stroke-width="1" fill="none" fill-rule="evenodd">
        <g id="Desktop-Ver4.3" transform="translate(-927.000000, -2314.000000)">
            <g id="Block-4" transform="translate(112.000000, 2226.000000)">
                <g id="Group-81" transform="translate(95.000000, 88.000000)">
                    <g id="Icon-Three" transform="translate(720.000000, 0.000000)">
                        <circle id="Oval-7-Copy-2" stroke="#0069FF" stroke-width="2" opacity="0.300000012" cx="58" cy="58" r="49"></circle>
                        <circle id="Oval-7" stroke="#0069FF" stroke-width="2" opacity="0.238564312" cx="58" cy="58" r="53"></circle>
                        <circle id="Oval-7" stroke="#0069FF" stroke-width="2" opacity="0.08" cx="58" cy="58" r="57"></circle>
                        <path d="M53.171875,58.4453125 L57.2734375,58.4453125 C62.6875,58.4453125 66.015625,61.0703125 66.015625,65.3125 C66.015625,69.390625 62.4296875,72.4140625 57.53125,72.4140625 C52.890625,72.4140625 49.375,69.671875 49.09375,65.875 L46,65.875 C46.2109375,71.3359375 51.015625,75.2265625 57.5546875,75.2265625 C64.1875,75.2265625 69.3203125,70.9375 69.3203125,65.3828125 C69.3203125,60.7421875 66.3203125,57.53125 61.4921875,56.9921875 L61.4921875,56.6875 C65.4296875,55.8203125 67.7734375,52.84375 67.7734375,48.765625 C67.7734375,43.890625 63.1796875,40 57.4140625,40 C51.2734375,40 47.078125,43.609375 46.703125,49.140625 L49.8203125,49.140625 C50.1484375,45.296875 53.1015625,42.8125 57.296875,42.8125 C61.4921875,42.8125 64.515625,45.4609375 64.515625,49.140625 C64.515625,53.0078125 61.4921875,55.6796875 57.1328125,55.6796875 L53.171875,55.6796875 L53.171875,58.4453125 Z" id="3" fill="#0069FF"></path>
                    </g>
                </g>
            </g>
        </g>
    </g>
</svg>