<?xml version="1.0" encoding="UTF-8"?>
<svg width="16px" height="24px" viewBox="0 0 16 24" version="1.1" xmlns="http://www.w3.org/2000/svg" xmlns:xlink="http://www.w3.org/1999/xlink">
    <!-- Generator: sketchtool 49 (51002) - http://www.bohemiancoding.com/sketch -->
    <title>79BB80D5-F96B-480E-A766-6DEA3D5189D3</title>
    <desc>Created with sketchtool.</desc>
    <defs></defs>
    <g id="Оборудование" stroke="none" stroke-width="1" fill="none" fill-rule="evenodd">
        <g id="Equipment-2.1" transform="translate(-472.000000, -1656.000000)">
            <g id="Group-13" transform="translate(0.000000, 1270.000000)">
                <g id="Block-1" transform="translate(112.000000, 0.000000)">
                    <g id="Group-2-Copy-2" transform="translate(360.000000, 122.000000)">
                        <g id="Group-12" transform="translate(0.000000, 264.000000)">
                            <g id="Icon-Like">
                                <rect id="Rectangle-4" x="0" y="0" width="16" height="24"></rect>
                                <g transform="translate(0.000000, 3.000000)" fill="#EB0080" fill-rule="nonzero" id="Group">
                                    <g>
                                        <path d="M3.5146875,15 L1.1821875,15 C0.53578125,15 0.00984375,14.4740625 0.00984375,13.8271875 L0.00984375,6.7978125 C0.00984375,6.15140625 0.53578125,5.625 1.1821875,5.625 L3.5146875,5.625 C4.16109375,5.625 4.6875,6.15140625 4.6875,6.7978125 L4.6875,13.8271875 C4.6875,14.4740625 4.16109375,15 3.5146875,15 Z M1.1821875,6.5625 C1.0528125,6.5625 0.94734375,6.66796875 0.94734375,6.7978125 L0.94734375,13.8271875 C0.94734375,13.9565625 1.0528125,14.0625 1.1821875,14.0625 L3.5146875,14.0625 C3.64453125,14.0625 3.75,13.9565625 3.75,13.8271875 L3.75,6.7978125 C3.75,6.66796875 3.64453125,6.5625 3.5146875,6.5625 L1.1821875,6.5625 Z" id="Shape"></path>
                                        <path d="M12.1064062,15 L6.42515625,15 C6.1359375,15 5.84671875,14.9315625 5.5875,14.8021875 L4.00875,14.0128125 C3.7771875,13.8970312 3.6834375,13.6153125 3.79921875,13.38375 C3.915,13.1521875 4.19625,13.0584375 4.42828125,13.1742187 L6.00703125,13.9635938 C6.13640625,14.0282812 6.28078125,14.0625 6.42515625,14.0625 L12.1064062,14.0625 C12.2775,14.0625 12.436875,13.9701563 12.5221875,13.8210937 L13.0514062,12.8948437 C13.7128125,11.7375 14.0625,10.4203125 14.0625,9.0871875 L14.0625,7.5009375 C14.0625,6.9834375 13.6415625,6.5625 13.1240625,6.5625 L9.59578125,6.5625 C9.285,6.5625 8.9953125,6.40875 8.8209375,6.15140625 C8.64703125,5.8940625 8.611875,5.5678125 8.7271875,5.27953125 C9.15703125,4.20515625 9.375,3.073125 9.375,1.91484375 L9.375,1.3715625 C9.375,1.1325 9.18046875,0.9375 8.9409375,0.9375 L8.649375,0.9375 C8.45671875,0.9375 8.28515625,1.066875 8.2321875,1.25203125 L8.0484375,1.8946875 C7.6546875,3.27140625 7.00171875,4.53609375 6.10734375,5.65453125 C5.64609375,6.2315625 4.95796875,6.5625 4.21875,6.5625 L2.8125,6.5625 C2.55375,6.5625 2.34375,6.3525 2.34375,6.09375 C2.34375,5.835 2.55375,5.625 2.8125,5.625 L4.21875,5.625 C4.67109375,5.625 5.09296875,5.42203125 5.375625,5.06859375 C6.19171875,4.04765625 6.78796875,2.893125 7.14703125,1.636875 L7.33078125,0.99421875 C7.498125,0.40921875 8.04046875,0 8.649375,0 L8.9409375,0 C9.6975,0 10.3125,0.615 10.3125,1.3715625 L10.3125,1.91484375 C10.3125,3.193125 10.0715625,4.44234375 9.59765625,5.6278125 L13.1240625,5.625 C14.1585937,5.625 15,6.46640625 15,7.5009375 L15,9.0871875 C15,10.5834375 14.6076562,12.0614062 13.8651562,13.3603125 L13.3359375,14.2865625 C13.0842187,14.7267187 12.613125,15 12.1064062,15 Z" id="Shape"></path>
                                        <circle id="Oval" cx="2.34375" cy="12.65625" r="1"></circle>
                                    </g>
                                </g>
                            </g>
                        </g>
                    </g>
                </g>
            </g>
        </g>
    </g>
</svg>