<?xml version="1.0" encoding="UTF-8"?>
<svg width="16px" height="24px" viewBox="0 0 16 24" version="1.1" xmlns="http://www.w3.org/2000/svg" xmlns:xlink="http://www.w3.org/1999/xlink">
    <!-- Generator: sketchtool 49 (51002) - http://www.bohemiancoding.com/sketch -->
    <title>4AA2A453-3BA2-41D1-A0EA-F4A38987CEDD</title>
    <desc>Created with sketchtool.</desc>
    <defs></defs>
    <g id="Оборудование" stroke="none" stroke-width="1" fill="none" fill-rule="evenodd">
        <g id="Equipment-2.1" transform="translate(-832.000000, -1656.000000)">
            <g id="Group-13" transform="translate(0.000000, 1270.000000)">
                <g id="Block-1" transform="translate(112.000000, 0.000000)">
                    <g id="Group-2-Copy-3" transform="translate(720.000000, 122.000000)">
                        <g id="Group-15" transform="translate(0.000000, 264.000000)">
                            <g id="Icon-Price">
                                <rect id="Rectangle-10" x="0" y="0" width="16" height="24"></rect>
                                <g id="noun_1236645_cc" transform="translate(0.000000, 5.000000)" fill="#EB0080" fill-rule="nonzero">
                                    <path d="M7.5,14.8256757 C11.545859,14.8256757 14.8256757,11.545859 14.8256757,7.5 C14.8256757,3.45414104 11.545859,0.174324324 7.5,0.174324324 C3.45414104,0.174324324 0.174324324,3.45414104 0.174324324,7.5 C0.178792844,11.5440066 3.45599341,14.8212072 7.5,14.8256757 Z M7.5,0.983108108 C11.0977966,0.983108282 14.0144915,3.89950092 14.0148645,7.49729751 C14.0152375,11.0950941 11.0991475,14.0120915 7.50135093,14.0128377 C3.9035544,14.0135839 0.986254549,11.0977964 0.985135135,7.5 C0.98960248,3.90379155 3.90379155,0.98960248 7.5,0.985135135 L7.5,0.983108108 Z" id="Shape"></path>
                                    <path d="M5.71621622,9.00810811 L5.57027027,8.86216216 L4.93986486,9.50675676 L5.07364865,9.64864865 C5.63139018,10.2039392 6.37365681,10.5350378 7.15945946,10.5790541 L7.15945946,11.3371622 L8.0027027,11.3371622 L8.0027027,10.577027 C9.4722973,10.4290541 10.0013514,9.58175676 10.0013514,8.81554054 C10.0013514,7.59932432 8.81351351,7.23040541 8.0027027,7.02364865 L8.0027027,5.30472973 C8.43862813,5.37368334 8.84046278,5.58206839 9.14797297,5.89864865 L9.28986486,6.04662162 L9.94662162,5.40810811 L9.79864865,5.27027027 C9.30792195,4.80616169 8.67536416,4.52058255 8.0027027,4.45945946 L8.0027027,3.66283784 L7.15945946,3.66283784 L7.15945946,4.43716216 C6.00608108,4.54662162 5.21756757,5.21554054 5.21756757,6.10945946 C5.21756757,7.21824324 6.25743243,7.52837838 7.15945946,7.76756757 L7.15945946,9.72972973 C6.61268351,9.65260676 6.10598017,9.39925509 5.71621622,9.00810811 Z M8.00067568,7.99459459 C8.65135135,8.18716216 9.01418919,8.41013514 9.01418919,8.86013514 C9.01418919,9.03851351 8.93716216,9.60202703 8.00067568,9.73986486 L8.00067568,7.99459459 Z M6.19459459,6.08108108 C6.19459459,5.67567568 6.58986486,5.36554054 7.15945946,5.28243243 L7.15945946,6.81081081 C6.54527027,6.63851351 6.19459459,6.44797297 6.19459459,6.08108108 Z" id="Shape"></path>
                                </g>
                            </g>
                        </g>
                    </g>
                </g>
            </g>
        </g>
    </g>
</svg>