<?xml version="1.0" encoding="UTF-8"?>
<svg width="24px" height="24px" viewBox="0 0 24 24" version="1.1" xmlns="http://www.w3.org/2000/svg" xmlns:xlink="http://www.w3.org/1999/xlink">
    <!-- Generator: sketchtool 49 (51002) - http://www.bohemiancoding.com/sketch -->
    <title>E82CB827-64A0-4CD2-BB1A-E993E422A4B7</title>
    <desc>Created with sketchtool.</desc>
    <defs>
        <linearGradient x1="66.67%" y1="16.67%" x2="41.67%" y2="75%" id="linearGradient-1">
            <stop stop-color="#37AEE2" offset="0%"></stop>
            <stop stop-color="#1E96C8" offset="100%"></stop>
        </linearGradient>
        <linearGradient x1="61.2346759%" y1="43.69%" x2="74.7064382%" y2="80.24%" id="linearGradient-2">
            <stop stop-color="#EFF7FC" offset="0%"></stop>
            <stop stop-color="#FFFFFF" offset="100%"></stop>
        </linearGradient>
    </defs>
    <g id="Оборудование" stroke="none" stroke-width="1" fill="none" fill-rule="evenodd">
        <g id="Equipment-2.1" transform="translate(-411.000000, -3924.000000)" fill-rule="nonzero">
            <g id="Group-13" transform="translate(0.000000, 1270.000000)">
                <g id="Block" transform="translate(0.000000, 2490.000000)">
                    <g id="Group-41" transform="translate(387.000000, 152.000000)">
                        <g id="Group-39">
                            <g id="Telegram_logo" transform="translate(24.000000, 12.000000)">
                                <circle id="Oval" fill="url(#linearGradient-1)" cx="12" cy="12" r="12"></circle>
                                <path d="M9.8,17.5 C9.41124,17.5 9.4773,17.35321 9.34322,16.98305 L8.2,13.22059 L17,8" id="Shape" fill="#C8DAEA"></path>
                                <path d="M9.8,17.5 C10.1,17.5 10.23255,17.3628 10.4,17.2 L12,15.6442 L10.0042,14.4407" id="Shape" fill="#A9C9DD"></path>
                                <path d="M10.004,14.441 L14.84,18.0139 C15.39185,18.31839 15.79014,18.16074 15.9276,17.50155 L17.8961,8.22525 C18.09764,7.41723 17.58809,7.05075 17.06016,7.29043 L5.50116,11.74753 C4.71215,12.064 4.71675,12.50419 5.35734,12.70033 L8.32364,13.62616 L15.19094,9.29366 C15.51513,9.09707 15.81267,9.202761 15.56846,9.4195" id="Shape" fill="url(#linearGradient-2)"></path>
                            </g>
                        </g>
                    </g>
                </g>
            </g>
        </g>
    </g>
</svg>