<?xml version="1.0" encoding="UTF-8"?>
<svg width="24px" height="24px" viewBox="0 0 24 24" version="1.1" xmlns="http://www.w3.org/2000/svg" xmlns:xlink="http://www.w3.org/1999/xlink">
    <!-- Generator: sketchtool 49 (51002) - http://www.bohemiancoding.com/sketch -->
    <title>F5F930E8-5A4A-4FB0-B026-745893555C33</title>
    <desc>Created with sketchtool.</desc>
    <defs></defs>
    <g id="Оборудование" stroke="none" stroke-width="1" fill="none" fill-rule="evenodd">
        <g id="Equipment-2.1" transform="translate(-693.000000, -3924.000000)" fill-rule="nonzero">
            <g id="Group-13" transform="translate(0.000000, 1270.000000)">
                <g id="Block" transform="translate(0.000000, 2490.000000)">
                    <g id="Group-41" transform="translate(387.000000, 152.000000)">
                        <g id="Group-39-Copy" transform="translate(282.000000, 0.000000)">
                            <g id="viber-icon-logo-by-Vexels" transform="translate(24.000000, 12.000000)">
                                <path d="M11.9999782,2.18181818e-05 C18.6273382,2.18181818e-05 24,5.37259636 24,12 C24,18.6273382 18.62736,23.9999782 11.9999782,23.9999782 C5.37259636,23.9999782 0,18.6273382 0,12 C0,5.37259636 5.37259636,2.18181818e-05 11.9999782,2.18181818e-05 Z" id="Shape" fill="#6F3FAA"></path>
                                <g id="Group" transform="translate(4.930909, 4.581818)" fill="#FFFFFF">
                                    <path d="M3.44428364,12.5844 C1.35776727,11.9784436 0.422814545,10.4711564 0.14808,8.46543273 C-0.0476509091,7.03614545 -0.0176509091,5.60186182 0.231403636,4.17770182 C0.364298182,3.41853818 0.627054545,2.70626182 1.06915636,2.06635636 C1.68925091,1.16816727 2.60921455,0.734858182 3.60872727,0.435054545 C5.10253091,-0.0126763636 6.63669818,-0.0485454545 8.17706182,0.0395345455 C9.12857455,0.0941890909 10.05744,0.271069091 10.9666691,0.575541818 C12.5690618,1.11235636 13.4701745,2.2416 13.8456,3.85071273 C14.1845018,5.30114182 14.1637527,6.76226182 14.01648,8.23114909 C13.9511127,8.88497455 13.8387491,9.52614545 13.5853091,10.1346109 C13.0354255,11.4529964 12.0349745,12.2381673 10.67232,12.6098618 C9.18189818,13.0164873 7.66819636,13.1405455 6.13204364,13.0336582 C5.97237818,13.0224873 5.86861091,13.0602327 5.76207273,13.1852509 C5.40970909,13.5991418 5.04224727,13.9997236 4.67956364,14.4041018 C4.62309818,14.4673527 4.56255273,14.5272436 4.50076364,14.5854545 C4.29879273,14.7757309 4.07114182,14.9120509 3.78940364,14.78784 C3.51024,14.6645018 3.44858182,14.4029455 3.44554909,14.1286473 C3.44033455,13.6196073 3.44428364,13.1106545 3.44428364,12.5844 Z M3.91315636,14.3206691 C3.94066909,14.3297236 3.96816,14.3385818 3.99573818,14.3476364 C4.08868364,14.2644655 4.19166545,14.1903491 4.27293818,14.0967491 C4.83567273,13.4492509 5.39919273,12.8019709 5.95016727,12.1445673 C6.07784727,11.9921455 6.20587636,11.9324509 6.40413818,11.9406764 C7.64786182,11.9908582 8.87245091,11.8756364 10.0894036,11.5890109 C11.5210036,11.2516582 12.4518545,10.4207345 12.7660145,8.98269818 C13.1137091,7.39147636 13.1385818,5.78592 12.7918473,4.18562182 C12.4927855,2.80544727 11.6984291,1.89298909 10.3076509,1.50704727 C9.27661091,1.22072727 8.23296,1.10328 7.16716364,1.09226182 C6.09248727,1.08124364 5.03430545,1.16042182 3.99556364,1.45885091 C2.61150545,1.85746909 1.69566545,2.72232 1.38573818,4.13720727 C1.04094545,5.71134545 1.00924364,7.30872 1.33186909,8.88813818 C1.59506182,10.1749091 2.35738909,11.0890909 3.63423273,11.51016 C3.83437091,11.5763564 3.89773091,11.6672291 3.89330182,11.8681527 C3.87722182,12.5732945 3.87410182,13.2785891 3.87126545,13.9839491 C3.87102545,14.0961164 3.89853818,14.2085018 3.91315636,14.3206691 Z" id="Shape"></path>
                                    <path d="M3.08406545,4.33850182 C3.16830545,4.17298909 3.23856,3.93521455 3.38722909,3.76754182 C3.59251636,3.53600727 3.84279273,3.33554182 4.10024727,3.16162909 C4.3932,2.96365091 4.67694545,3.01424727 4.8912,3.28998545 C5.19303273,3.67793455 5.48792727,4.07306182 5.75685818,4.48422545 C6.02912727,4.90121455 5.96249455,5.19200727 5.57646545,5.49604364 C5.18072727,5.80789091 5.14077818,5.94344727 5.34946909,6.40745455 C5.79054545,7.38940364 6.47072727,8.11540364 7.53320727,8.43272727 C7.75224,8.49829091 7.90996364,8.43608727 8.05099636,8.27437091 C8.61161455,7.63027636 8.7312,7.60570909 9.44762182,8.07534545 C9.78750545,8.29843636 10.1062909,8.55521455 10.4224582,8.81138182 C10.6540582,8.99904 10.7038036,9.22819636 10.5728945,9.49470545 C10.3819855,9.88243636 10.1065309,10.2039709 9.73481455,10.4312727 C9.47218909,10.5917236 9.19064727,10.5990764 8.90504727,10.4871491 C6.80445818,9.66318545 5.05215273,8.41584 3.96100364,6.38088 C3.67719273,5.85172364 3.43614545,5.29922182 3.18410182,4.75339636 C3.13577455,4.64884364 3.12761455,4.52544 3.08406545,4.33850182 Z" id="Shape"></path>
                                    <path d="M7.29080727,2.65064727 C8.96561455,2.70357818 10.7033891,3.98906182 10.8556145,6.21702545 C10.8648655,6.35197091 10.8882982,6.48667636 10.8905236,6.62184 C10.89312,6.77343273 10.8216655,6.91721455 10.6645964,6.89509091 C10.5798327,6.88306909 10.46832,6.73906909 10.4498618,6.63931636 C10.3852145,6.29138182 10.3904073,5.92858909 10.3076509,5.58615273 C9.96124364,4.15407273 8.75081455,3.16804364 7.27721455,3.08753455 C7.176,3.08199273 7.06381091,3.09065455 6.97719273,3.04952727 C6.89146909,3.00925091 6.83173091,2.91418909 6.76077818,2.84290909 C6.84283636,2.77274182 6.91525091,2.68119273 7.00994182,2.63897455 C7.07823273,2.60851636 7.17556364,2.64312 7.29080727,2.65064727 Z" id="Shape"></path>
                                    <path d="M9.88848,6.07477091 C9.88848,6.12584727 9.88749818,6.17677091 9.88869818,6.22762909 C9.89227636,6.37712727 9.86465455,6.50945455 9.67806545,6.50851636 C9.49841455,6.50740364 9.45224727,6.37442182 9.45425455,6.22867636 C9.46090909,5.75659636 9.34588364,5.32210909 9.06894545,4.93645091 C8.68269818,4.39882909 8.13953455,4.13982545 7.49692364,4.06082182 C7.42963636,4.05264 7.34192727,4.06946182 7.29936,4.03278545 C7.22005091,3.96552 7.16692364,3.86727273 7.10282182,3.78213818 C7.18348364,3.72178909 7.26752727,3.60521455 7.34465455,3.60984 C8.57367273,3.68258182 9.55418182,4.39075636 9.82889455,5.59745455 C9.86421818,5.75321455 9.87824727,5.91390545 9.90235636,6.07263273 C9.89773091,6.07344 9.89308364,6.07411636 9.88848,6.07477091 Z" id="Shape"></path>
                                    <path d="M8.92660364,5.98104 C8.89267636,6.01778182 8.81952,6.16843636 8.72273455,6.18541091 C8.54413091,6.21661091 8.49922909,6.05262545 8.48170909,5.89824 C8.42090182,5.36074909 8.23021091,5.15781818 7.70098909,5.06037818 C7.67589818,5.05594909 7.65113455,5.04903273 7.62595636,5.04602182 C7.46991273,5.02741091 7.34321455,4.94666182 7.40275636,4.78734545 C7.43408727,4.70325818 7.59050182,4.60880727 7.68499636,4.61421818 C8.40761455,4.65554182 8.88425455,5.15328 8.92660364,5.98104 Z" id="Shape"></path>
                                </g>
                                <g id="Group" transform="translate(12.021818, 8.581818)" fill="#000000" opacity="0.1">
                                    <path d="M1.83569455,1.98104 C1.80185455,2.01730182 1.72839273,2.16889455 1.63169455,2.18571636 C1.45365818,2.21672 1.40832,2.05293091 1.3908,1.89854545 C1.32946909,1.36055273 1.13908364,1.15770909 0.609861818,1.06002909 C0.585185455,1.0556 0.560225455,1.04844364 0.535461818,1.04565091 C0.379549091,1.02730182 0.251650909,0.946552727 0.312174545,0.787018182 C0.343156364,0.702930909 0.500007273,0.608916364 0.594065455,0.614065455 C1.31727273,0.655105455 1.79299636,1.15308364 1.83569455,1.98104 Z" id="Shape"></path>
                                </g>
                                <path d="M15.5035636,14.0765673 C15.3128727,14.4645164 15.0374182,14.7856145 14.6657018,15.0133527 C14.4034909,15.1738036 14.1217309,15.1807636 13.8361527,15.0692291 C13.2005673,14.8200218 12.5960945,14.53128 12.0333382,14.1944509 L12.0333382,12.8541164 C12.1688073,12.9163418 12.3125018,12.9694473 12.4639855,13.0145673 C12.6829309,13.0800218 12.8406545,13.0179273 12.9816218,12.8558182 C13.5427636,12.2123345 13.6623273,12.1876582 14.3785309,12.6572945 C14.718,12.87984 15.0372873,13.1369455 15.3534545,13.3929164 C15.5849455,13.5810982 15.6344727,13.8104727 15.5035636,14.0765673 Z" id="Shape" fill="#000000" opacity="0.1"></path>
                                <path d="M14.8332873,10.6542109 C14.8288582,10.6552582 14.8236218,10.6561527 14.8191927,10.6568945 C14.8191927,10.7073382 14.8182109,10.7586545 14.8191927,10.80912 C14.8227709,10.9590327 14.7952364,11.0911855 14.6091927,11.0902255 C14.4291055,11.0893309 14.3831782,10.9563491 14.3848364,10.8101891 C14.3920364,10.3388073 14.2768145,9.90340364 14.0002909,9.51792 C13.6138255,8.98064727 13.0704655,8.72181818 12.4278545,8.64298909 C12.3605673,8.63415273 12.2726618,8.65093091 12.2303782,8.61445091 C12.1514182,8.54720727 12.0982691,8.44893818 12.0335564,8.36384727 C12.1142182,8.30347636 12.1982618,8.18729455 12.27552,8.19172364 C13.5048436,8.26446545 14.4852,8.97261818 14.7599345,10.1790982 C14.7952364,10.3350109 14.8093745,10.4953964 14.8332873,10.6542109 Z" id="Shape" fill="#000000" opacity="0.1"></path>
                                <path d="M15.8217164,11.2038764 C15.8242255,11.3552509 15.7523345,11.4987927 15.5954836,11.4767127 C15.5105018,11.4651273 15.3989891,11.3208873 15.3810545,11.2213745 C15.31632,10.8730036 15.3217309,10.5106255 15.23856,10.1684291 C14.8919345,8.73615273 13.68192,7.74946909 12.2081236,7.66891636 C12.1513964,7.66623273 12.0911127,7.66723636 12.0334473,7.66180364 L12.0334473,7.20896727 C12.0874473,7.21361455 12.1513964,7.22862545 12.2211927,7.23305455 C13.8965018,7.28509091 15.6344509,8.57120727 15.7862836,10.7987345 C15.7957527,10.9341818 15.8189891,11.06808 15.8217164,11.2038764 Z" id="Shape" fill="#000000" opacity="0.1"></path>
                            </g>
                        </g>
                    </g>
                </g>
            </g>
        </g>
    </g>
</svg>